<svg width="27" height="28" viewBox="0 0 27 28" fill="none" xmlns="http://www.w3.org/2000/svg">
<path fill-rule="evenodd" clip-rule="evenodd" d="M13.2913 0.85437C6.05632 0.85437 0.184479 6.72622 0.184479 13.9612C0.184479 21.1961 6.05632 27.068 13.2913 27.068C20.5262 27.068 26.3981 21.1961 26.3981 13.9612C26.3981 6.72622 20.5262 0.85437 13.2913 0.85437ZM21.6272 20.2917C19.7529 18.0112 15.2049 17.2379 13.2913 17.2379C11.3777 17.2379 6.82962 18.0112 4.95535 20.2917C3.61846 18.5354 2.80584 16.3466 2.80584 13.9612C2.80584 8.18107 7.51118 3.47573 13.2913 3.47573C19.0714 3.47573 23.7767 8.18107 23.7767 13.9612C23.7767 16.3466 22.9641 18.5354 21.6272 20.2917ZM8.7039 10.6845C8.7039 8.14175 10.7486 6.09709 13.2913 6.09709C15.834 6.09709 17.8787 8.14175 17.8787 10.6845C17.8787 13.2272 15.834 15.2718 13.2913 15.2718C10.7486 15.2718 8.7039 13.2272 8.7039 10.6845Z" fill="#CAC4D0"/>
</svg>
